<?xml version="1.0" standalone="no"?>
<!DOCTYPE svg PUBLIC "-//W3C//DTD SVG 20010904//EN"
 "http://www.w3.org/TR/2001/REC-SVG-20010904/DTD/svg10.dtd">
<svg version="1.0" xmlns="http://www.w3.org/2000/svg"
 width="1216.000000pt" height="1216.000000pt" viewBox="0 0 1216.000000 1216.000000"
 preserveAspectRatio="xMidYMid meet">
<metadata>
Created by potrace 1.11, written by Peter Selinger 2001-2013
</metadata>
<g transform="translate(0.000000,1216.000000) scale(0.100000,-0.100000)"
fill="#000000" stroke="none">
<path d="M5653 11289 c-1243 -65 -2449 -542 -3416 -1352 -628 -527 -1155
-1238 -1481 -2000 -214 -499 -344 -1023 -397 -1597 -17 -174 -17 -676 0 -850
63 -687 232 -1288 532 -1890 394 -793 978 -1471 1724 -2004 1322 -945 3004
-1286 4639 -940 1040 220 2017 736 2766 1461 535 517 940 1103 1224 1766 486
1135 546 2437 166 3610 -271 838 -737 1578 -1390 2210 -577 559 -1314 1008
-2091 1275 -726 250 -1479 353 -2276 311z m-1083 -2385 c189 -57 337 -201 395
-386 45 -142 32 -326 -31 -450 -114 -225 -327 -341 -599 -325 -175 10 -286 58
-401 172 -212 211 -230 538 -45 788 84 114 210 188 369 217 68 13 248 4 312
-16z m4300 0 c189 -57 337 -201 395 -386 45 -142 32 -326 -31 -450 -114 -225
-327 -341 -599 -325 -175 10 -286 58 -401 172 -212 211 -230 538 -45 788 84
114 210 188 369 217 68 13 248 4 312 -16z m-6002 -221 l2 -213 200 0 200 0 2
213 3 212 145 0 145 0 3 -557 2 -558 -151 0 -150 0 3 230 3 230 -202 0 -203 0
0 -230 0 -230 -150 0 -150 0 0 554 c0 520 1 555 18 559 9 3 76 4 147 3 l130
-1 3 -212z m2603 -113 c48 -179 91 -336 94 -350 6 -19 34 57 124 325 l116 350
117 3 117 3 21 -73 c56 -190 183 -604 189 -615 4 -7 52 144 107 335 l101 347
144 3 c78 1 148 1 155 -2 8 -3 -45 -183 -165 -558 l-177 -553 -151 -3 -152 -3
-50 158 c-27 87 -71 225 -96 308 -25 82 -48 151 -50 153 -1 2 -50 -136 -106
-307 l-104 -311 -150 0 -150 0 -166 555 c-91 305 -163 557 -160 560 2 3 72 4
155 3 l150 -3 87 -325z m2507 203 l3 -123 -121 0 -120 0 0 -435 0 -435 -150 0
-150 0 0 437 0 436 -115 -7 -115 -6 0 130 0 130 383 -2 382 -3 3 -122z m-4927
-2063 c48 -179 91 -336 94 -350 6 -19 34 57 124 325 l116 350 117 3 117 3 21
-73 c56 -190 183 -604 189 -615 4 -7 52 144 107 335 l101 347 144 3 c78 1 148
1 155 -2 8 -3 -45 -183 -165 -558 l-177 -553 -151 -3 -152 -3 -50 158 c-27 87
-71 225 -96 308 -25 82 -48 151 -50 153 -1 2 -50 -136 -106 -307 l-104 -311
-150 0 -150 0 -166 555 c-91 305 -163 557 -160 560 2 3 72 4 155 3 l150 -3 87
-325z m2010 307 c106 -35 182 -111 215 -215 22 -71 16 -199 -13 -263 -28 -63
-90 -122 -149 -144 -27 -10 -51 -20 -52 -21 -2 -1 70 -99 160 -216 90 -117
167 -219 171 -225 7 -10 -31 -13 -176 -13 l-184 0 -95 148 c-53 81 -111 172
-129 202 l-34 55 -3 -202 -2 -203 -150 0 -150 0 0 553 c0 305 3 557 8 561 4 5
126 6 272 3 198 -4 277 -9 311 -20z m767 -539 l2 -558 -150 0 -150 0 0 553 c0
305 3 557 7 561 4 3 70 5 147 4 l141 -3 3 -557z m910 435 l3 -123 -121 0 -120
0 0 -435 0 -435 -150 0 -150 0 0 437 0 436 -115 -7 -115 -6 0 130 0 130 383
-2 382 -3 3 -122z m772 2 l0 -125 -170 0 -170 0 0 -92 0 -93 160 3 160 3 0
-126 0 -125 -160 0 -160 0 0 -95 0 -95 170 0 170 0 0 -125 0 -125 -320 0 -320
0 0 553 c0 305 3 557 7 560 3 4 147 7 320 7 l313 0 0 -125z m1427 -420 c112
-297 206 -548 209 -557 5 -17 -7 -18 -154 -18 l-159 0 -32 95 -33 95 -197 0
-198 0 -37 -95 -38 -95 -155 0 c-143 0 -155 1 -151 18 10 38 412 1078 421
1090 7 9 49 12 165 10 l156 -3 203 -540z m-547 -1311 c189 -57 337 -201 395
-386 45 -142 32 -326 -31 -450 -114 -225 -327 -341 -599 -325 -175 10 -286 58
-401 172 -212 211 -230 538 -45 788 84 114 210 188 369 217 68 13 248 4 312
-16z m-6842 -441 l2 -433 170 0 170 0 0 -125 0 -125 -320 0 -320 0 0 553 c0
305 3 557 7 561 4 3 70 5 147 4 l141 -3 3 -432z m1349 -108 c112 -297 206
-548 209 -557 5 -17 -7 -18 -154 -18 l-159 0 -32 95 -33 95 -197 0 -198 0 -37
-95 -38 -95 -155 0 c-143 0 -155 1 -151 18 11 39 412 1078 421 1090 7 9 49 12
165 10 l156 -3 203 -540z m913 526 c73 -22 126 -66 156 -128 25 -50 29 -70 29
-143 0 -104 -14 -144 -66 -198 l-41 -41 40 -10 c59 -16 116 -63 143 -118 20
-41 24 -63 24 -148 0 -114 -15 -153 -82 -216 -90 -86 -155 -99 -495 -99 l-268
0 0 553 c0 305 3 557 8 561 11 12 511 0 552 -13z m1491 -4 c106 -35 182 -111
215 -215 22 -71 16 -199 -13 -263 -28 -63 -90 -122 -149 -144 -27 -10 -51 -20
-52 -21 -2 -1 70 -99 160 -216 90 -117 167 -219 171 -225 7 -10 -31 -13 -176
-13 l-184 0 -95 148 c-53 81 -111 172 -129 202 l-34 55 -3 -202 -2 -203 -150
0 -150 0 0 553 c0 305 3 557 8 561 4 5 126 6 272 3 198 -4 277 -9 311 -20z
m1109 -102 l0 -125 -170 0 -170 0 0 -92 0 -93 160 3 160 3 0 -126 0 -125 -160
0 -160 0 0 -95 0 -95 170 0 170 0 0 -125 0 -125 -320 0 -320 0 0 553 c0 305 3
557 7 560 3 4 147 7 320 7 l313 0 0 -125z m718 115 c147 -17 246 -82 301 -199
23 -50 26 -68 26 -166 0 -136 -18 -194 -82 -265 -79 -88 -144 -110 -330 -110
l-133 0 0 -185 0 -185 -150 0 -150 0 0 553 c0 305 3 557 7 560 10 11 417 8
511 -3z m2453 -13 c106 -35 182 -111 215 -215 22 -71 16 -199 -13 -263 -28
-63 -90 -122 -149 -144 -27 -10 -51 -20 -52 -21 -2 -1 70 -99 160 -216 90
-117 167 -219 171 -225 7 -10 -31 -13 -176 -13 l-184 0 -95 148 c-53 81 -111
172 -129 202 l-34 55 -3 -202 -2 -203 -150 0 -150 0 0 553 c0 305 3 557 8 561
4 5 126 6 272 3 198 -4 277 -9 311 -20z m1117 -104 l3 -123 -121 0 -120 0 0
-435 0 -435 -150 0 -150 0 0 437 0 436 -115 -7 -115 -6 0 130 0 130 383 -2
382 -3 3 -122z"/>
<path d="M4295 8627 c-100 -33 -169 -98 -204 -191 -25 -68 -27 -123 -5 -196
23 -76 118 -171 194 -194 183 -55 366 52 398 234 25 139 -46 275 -175 332 -56
25 -156 32 -208 15z"/>
<path d="M8595 8627 c-100 -33 -169 -98 -204 -191 -25 -68 -27 -123 -5 -196
23 -76 118 -171 194 -194 183 -55 366 52 398 234 25 139 -46 275 -175 332 -56
25 -156 32 -208 15z"/>
<path d="M4770 6676 l0 -136 43 0 c105 0 167 48 167 129 0 86 -44 126 -150
138 l-60 6 0 -137z"/>
<path d="M8516 6513 c-27 -82 -51 -154 -53 -160 -4 -10 21 -13 107 -13 86 0
111 3 107 13 -2 6 -26 78 -52 160 -27 81 -51 147 -55 147 -3 0 -27 -66 -54
-147z"/>
<path d="M8115 4907 c-100 -33 -169 -98 -204 -191 -25 -68 -27 -123 -5 -196
23 -76 118 -171 194 -194 183 -55 366 52 398 234 25 139 -46 275 -175 332 -56
25 -156 32 -208 15z"/>
<path d="M2476 4653 c-27 -82 -51 -154 -53 -160 -4 -10 21 -13 107 -13 86 0
111 3 107 13 -2 6 -26 78 -52 160 -27 81 -51 147 -55 147 -3 0 -27 -66 -54
-147z"/>
<path d="M3550 4845 l0 -105 39 0 c53 0 97 17 115 45 20 31 20 94 1 122 -17
24 -71 43 -122 43 l-33 0 0 -105z"/>
<path d="M3550 4400 l0 -110 68 0 c130 0 182 32 182 112 0 81 -42 108 -171
108 l-79 0 0 -110z"/>
<path d="M5010 4816 l0 -136 43 0 c105 0 167 48 167 129 0 86 -44 126 -150
138 l-60 6 0 -137z"/>
<path d="M6910 4800 l0 -130 70 0 c120 0 170 38 170 129 0 96 -43 131 -162
131 l-78 0 0 -130z"/>
<path d="M9290 4816 l0 -136 43 0 c105 0 167 48 167 129 0 86 -44 126 -150
138 l-60 6 0 -137z"/>
</g>
</svg>
