<svg version="1" xmlns="http://www.w3.org/2000/svg" width="1066.667" height="1066.667" viewBox="0 0 800.000000 800.000000"><path d="M209.8 241.3c-85.1 25.4-155 46.6-155.5 47-.4.5-.1 1.4.8 2 2.3 1.7 7.4 12.1 9.9 20.5 1.8 5.8 2.1 9.1 1.8 16.9-.3 8.5-.7 10.6-3.3 15.8l-3 5.9-7.9 2.6c-4.4 1.5-8.1 3.1-8.4 3.8-.2.6 2.5 2.5 6 4.3 12.5 6.3 12.6 5.7-1 10.4-13 4.5-17.9 7.4-18.8 11-.8 3.3.9 5.8 6.3 9.3 9.2 5.7 326.7 170.6 333 172.9 13.5 4.9 32.3 4.9 49.3-.1 4.7-1.4 67.1-21.6 138.7-45 71.6-23.5 130.9-42.6 131.8-42.6 1.9 0 3.6 3.9 6 13.8 1.2 4.9 2.8 8.7 4.9 11.3 4.1 5.3 55 49.4 59 51.2 1.7.8 4.5 1.7 6.2 2l3.1.6-.5-5.2c-.3-3.1-1.8-7.9-3.8-11.9-5.5-10.9-4.9-11.4 7.8-7.3 5 1.6 9.3 2.3 12.3 2.1 5-.4 4.9-.3 4-3.1-2-6.5-5.1-9.6-28.1-28.6-19.1-15.8-24.8-21-26.3-24.3-2-4.2-4-11.9-8.6-33.6-1.5-6.9-3.7-15.1-5-18.4-2.3-5.7-2.3-5.9-.8-14 2.7-14.2.3-31.7-6-44.1-1.1-2.2-2-4.9-2.1-6-.1-2.8-338.1-165.5-343.5-165.4-2 0-73.2 20.9-158.3 46.2zM704 370.2c1.6 3.5 3.6 9 4.5 12.3 1.9 7.1 3 20.2 2.1 23.8l-.6 2.5-5.2-2.8c-6.2-3.4-16.4-5.4-22.2-4.5-13.9 2.2-31 7.7-34.9 11.2-1.7 1.6-6.2 2.5-19.4 3.9-3.5.4-6.3 1.1-6.3 1.5 0 1.2 1.7 1.1 13.1-.8 7.5-1.2 10.3-1.3 10.8-.5.4.7 3.8 1.9 7.7 2.8 13.6 3.2 16.9 4.4 20.6 7.4 4.4 3.7 10.5 15 8.6 16.1-1.5.8-278 88.9-279 88.9-.4 0 .4-2.5 1.8-5.6 9.1-20.6 9.1-44.1.1-62.7l-3.3-6.8 9.5-2.9c5.3-1.7 72.2-22.6 148.6-46.4 76.5-23.9 139.4-43.5 139.8-43.5.4-.1 2.1 2.7 3.7 6.1z"/><path d="M662.5 391.7c-4.3.5-14.1 3.1-20.5 5.5-3 1.1-12.1 3.5-20.1 5.4-8.1 1.9-16.6 4.1-19 5-2.4.8-8.1 2.4-12.7 3.5-8.1 1.9-30.8 8.6-36.6 10.8-1.6.7-4.1 2.1-5.7 3.2-1.5 1.1-5.2 2.8-8.2 3.8-2.9 1-7.8 3.2-10.8 5-3.1 1.7-8.7 3.7-12.9 4.5-4.1.8-9.3 2.2-11.5 3.1-5.8 2.5-30.9 9.5-33.9 9.5-1.4 0-2.6.4-2.6 1 0 .5.7 1 1.6 1 2.4 0 16.4-3.7 31.9-8.5 7.7-2.3 16-4.6 18.4-4.9 2.5-.4 9-3 14.5-5.8 6.4-3.2 16.7-7 28.1-10.5 9.9-3 23.9-7.4 31-9.8 7.2-2.3 19.3-5.9 27-7.9 7.7-2 17.8-5 22.5-6.7 6.1-2.2 12.2-3.4 21.8-4.4 15.9-1.7 20.6-3.5 8.7-3.3-4.4 0-9.3.3-11 .5zM620.5 430.7c-1.6.2-8.2 1.3-14.5 2.3-6.3 1.1-20.9 3.3-32.5 4.9-23.9 3.5-32.9 5.7-42.4 10.6-3.6 1.9-12.9 5.5-20.6 8.1-15.4 5.1-25.5 9.5-34.4 14.9-3.9 2.3-10.4 4.7-19.2 7.1-13.9 3.8-14.6 4-13.7 5 .3.3 3.7-.4 7.4-1.4 3.8-1.1 9.4-2.5 12.4-3.2 3-.7 8.7-2.9 12.5-5 3.9-2.1 8.6-4.1 10.5-4.5 5.2-1 29.5-10.2 37-14 15-7.5 33.3-12.1 60-15 19.9-2.1 36.7-5 43.4-7.5 3.1-1.2 5.6-2.3 5.6-2.6 0-.5-7.1-.3-11.5.3zM644.9 438.1c-2 .4-6 1.8-9 2.9-3 1.2-12.8 4.2-21.9 6.6-9.1 2.5-21.3 6-27.1 7.9-6.9 2.2-15.4 4-24 5.1-8.9 1.1-17.4 2.9-25.4 5.4-11.5 3.6-33.2 7-45 7-2.9 0-3.6.3-2.5 1 1.9 1.3 10.2 1.3 17.1 0 3-.5 9.5-1.4 14.4-1.9 5.5-.6 11.5-2 15.4-3.6 4.3-1.8 11.1-3.2 21.2-4.6 8.1-1 18.6-3 23.3-4.4 4.8-1.4 9.6-2.5 10.9-2.5 4.1 0 24.1-5.8 36-10.4 6.5-2.5 15.7-5.3 20.5-6.2 4.8-.9 9.4-2 10.2-2.5 2-1.1-9.2-1-14.1.2z"/></svg>