<?xml version="1.0" standalone="no"?>
<!DOCTYPE svg PUBLIC "-//W3C//DTD SVG 20010904//EN"
 "http://www.w3.org/TR/2001/REC-SVG-20010904/DTD/svg10.dtd">
<svg version="1.0" xmlns="http://www.w3.org/2000/svg"
 width="1551.000000pt" height="1551.000000pt" viewBox="0 0 1551.000000 1551.000000"
 preserveAspectRatio="xMidYMid meet">
<metadata>
Created by potrace 1.11, written by Peter Selinger 2001-2013
</metadata>
<g transform="translate(0.000000,1551.000000) scale(0.100000,-0.100000)"
fill="#000000" stroke="none">
<path d="M7445 15033 c-1994 -80 -3852 -881 -5225 -2253 -776 -776 -1358
-1690 -1717 -2700 -102 -286 -234 -763 -216 -781 6 -6 -2 -71 -23 -177 -314
-1582 -68 -3231 692 -4654 510 -954 1230 -1789 2109 -2443 1083 -807 2344
-1312 3705 -1485 359 -45 517 -54 985 -54 459 -1 588 5 929 45 329 38 762 114
1056 186 502 122 1070 333 1564 580 1795 897 3142 2426 3751 4258 163 489 264
968 320 1515 115 1136 -62 2321 -505 3380 -493 1178 -1321 2233 -2374 3024
-1079 811 -2362 1329 -3716 1500 -419 53 -925 76 -1335 59z m-1735 -3238 c52
-8 121 -23 153 -34 238 -83 427 -286 499 -538 30 -103 32 -323 4 -422 -75
-274 -280 -484 -546 -561 -103 -30 -331 -39 -446 -17 -297 56 -520 258 -614
552 -30 94 -38 281 -17 380 97 456 486 714 967 640z m5810 0 c52 -8 121 -23
153 -34 238 -83 427 -286 499 -538 30 -103 32 -323 4 -422 -75 -274 -280 -484
-546 -561 -103 -30 -331 -39 -446 -17 -297 56 -520 258 -614 552 -30 94 -38
281 -17 380 97 456 486 714 967 640z m-7990 -325 l0 -290 280 0 280 0 0 290 0
290 195 0 195 0 0 -750 0 -750 -195 0 -195 0 0 310 0 310 -280 0 -280 0 0
-310 0 -310 -200 0 -200 0 0 750 0 750 200 0 200 0 0 -290z m3368 258 c5 -18
62 -232 127 -476 65 -243 122 -439 126 -435 4 5 21 53 39 108 17 55 85 265
151 468 l120 367 159 0 158 0 16 -52 c75 -262 272 -898 278 -898 3 0 10 15 13
33 6 26 166 578 246 850 l20 67 204 0 c113 0 205 -3 205 -6 0 -3 -36 -117 -80
-252 -44 -136 -151 -470 -238 -742 l-158 -495 -201 -3 -202 -2 -50 157 c-78
249 -157 500 -187 601 -15 50 -30 92 -33 92 -4 0 -69 -191 -146 -425 l-139
-425 -201 0 -201 0 -219 733 c-120 402 -220 740 -223 750 -4 16 10 17 201 17
l206 0 9 -32z m3542 -133 l0 -165 -165 0 -165 0 0 -585 0 -585 -195 0 -195 0
0 585 0 585 -160 0 -160 0 0 165 0 165 520 0 520 0 0 -165z m-6782 -2357 c5
-18 62 -232 127 -476 65 -243 122 -439 126 -435 4 5 21 53 39 108 17 55 85
265 151 468 l120 367 159 0 158 0 16 -52 c75 -262 272 -898 278 -898 3 0 10
15 13 33 6 26 166 578 246 850 l20 67 204 0 c113 0 205 -3 205 -6 0 -3 -36
-117 -80 -252 -44 -136 -151 -470 -238 -742 l-158 -495 -201 -3 -202 -2 -50
157 c-78 249 -157 500 -187 601 -15 50 -30 92 -33 92 -4 0 -69 -191 -146 -425
l-139 -425 -201 0 -201 0 -219 733 c-120 402 -220 740 -223 750 -4 16 10 17
201 17 l206 0 9 -32z m2770 17 c169 -40 281 -152 327 -326 37 -138 2 -312 -83
-414 -38 -46 -110 -93 -169 -112 -29 -9 -52 -20 -51 -25 2 -4 102 -137 224
-295 121 -158 224 -294 228 -300 6 -10 -44 -13 -236 -13 l-244 0 -179 281
-180 281 -3 -281 -2 -281 -200 0 -200 0 0 750 0 750 353 0 c275 0 366 -4 415
-15z m1042 -735 l0 -750 -200 0 -200 0 0 750 0 750 200 0 200 0 0 -750z m1210
585 l0 -165 -165 0 -165 0 0 -585 0 -585 -195 0 -195 0 0 585 0 585 -160 0
-160 0 0 165 0 165 520 0 520 0 0 -165z m1020 0 l0 -165 -230 0 -230 0 0 -125
0 -125 220 0 220 0 -2 -162 -3 -163 -217 -3 -218 -2 0 -130 0 -130 230 0 230
0 0 -165 0 -165 -430 0 -430 0 0 750 0 750 430 0 430 0 0 -165z m1745 153 c2
-7 128 -343 280 -746 151 -404 275 -735 275 -738 0 -2 -94 -4 -209 -4 l-209 0
-47 130 -48 130 -267 0 -268 0 -52 -130 -52 -130 -209 0 -209 0 19 49 c11 26
140 360 286 742 147 382 269 697 272 702 2 4 101 7 219 7 163 0 216 -3 219
-12z m-625 -2453 c52 -8 121 -23 153 -34 238 -83 427 -286 499 -538 30 -103
32 -323 4 -422 -75 -274 -280 -484 -546 -561 -103 -30 -331 -39 -446 -17 -297
56 -520 258 -614 552 -30 94 -38 281 -17 380 97 456 486 714 967 640z m-9060
-620 l0 -585 235 0 235 0 0 -165 0 -165 -435 0 -435 0 0 750 0 750 200 0 200
0 0 -585z m1525 573 c2 -7 128 -343 280 -746 151 -404 275 -735 275 -738 0 -2
-94 -4 -209 -4 l-209 0 -47 130 -48 130 -267 0 -268 0 -52 -130 -52 -130 -204
0 c-112 0 -204 4 -204 9 0 13 553 1461 567 1484 2 4 101 7 219 7 163 0 216 -3
219 -12z m1510 -16 c73 -27 120 -64 162 -126 45 -66 57 -114 57 -231 1 -134
-19 -191 -91 -263 -29 -29 -53 -55 -53 -57 0 -2 14 -6 31 -10 153 -34 244
-150 256 -326 12 -171 -67 -323 -204 -392 -116 -59 -126 -60 -550 -65 l-393
-3 0 751 0 751 363 -3 c347 -3 364 -4 422 -26z m1993 13 c169 -40 281 -152
327 -326 37 -138 2 -312 -83 -414 -38 -46 -110 -93 -169 -112 -29 -9 -52 -20
-51 -25 2 -4 102 -137 224 -295 121 -158 224 -294 228 -300 6 -10 -44 -13
-236 -13 l-244 0 -179 281 -180 281 -3 -281 -2 -281 -200 0 -200 0 0 750 0
750 353 0 c275 0 366 -4 415 -15z m1512 -150 l0 -165 -230 0 -230 0 0 -125 0
-125 220 0 220 0 -2 -162 -3 -163 -217 -3 -218 -2 0 -130 0 -130 230 0 230 0
0 -165 0 -165 -430 0 -430 0 0 750 0 750 430 0 430 0 0 -165z m1039 150 c91
-22 174 -69 232 -133 65 -71 94 -130 115 -232 44 -217 -30 -441 -178 -539 -98
-66 -136 -74 -360 -79 l-198 -4 0 -249 0 -249 -200 0 -200 0 0 750 0 750 363
0 c287 0 375 -3 426 -15z m3169 0 c166 -39 278 -147 324 -314 41 -148 9 -320
-80 -426 -38 -46 -110 -93 -169 -112 -29 -9 -52 -20 -51 -25 2 -4 102 -137
224 -295 121 -158 224 -294 228 -300 6 -10 -44 -13 -236 -13 l-244 0 -179 281
-180 281 -3 -281 -2 -281 -200 0 -200 0 0 750 0 750 353 0 c275 0 366 -4 415
-15z m1542 -150 l0 -165 -165 0 -165 0 0 -585 0 -585 -195 0 -195 0 0 585 0
585 -160 0 -160 0 0 165 0 165 520 0 520 0 0 -165z"/>
<path d="M5422 11402 c-178 -64 -290 -231 -280 -420 7 -116 36 -180 122 -267
96 -98 151 -120 296 -119 134 0 196 22 280 101 222 205 173 552 -97 685 -60
29 -77 33 -167 36 -79 2 -113 -2 -154 -16z"/>
<path d="M11232 11402 c-178 -64 -290 -231 -280 -420 7 -116 36 -180 122 -267
96 -98 151 -120 296 -119 134 0 196 22 280 101 222 205 173 552 -97 685 -60
29 -77 33 -167 36 -79 2 -113 -2 -154 -16z"/>
<path d="M6060 8784 l0 -187 78 5 c96 5 157 32 192 85 21 30 25 49 25 104 0
60 -3 71 -31 106 -38 48 -104 72 -196 73 l-68 0 0 -186z"/>
<path d="M11210 8765 c-6 -16 -42 -121 -80 -232 l-69 -203 159 0 158 0 -72
218 c-40 119 -75 224 -78 232 -4 11 -9 6 -18 -15z"/>
<path d="M10532 6412 c-178 -64 -290 -231 -280 -420 7 -116 36 -180 122 -267
96 -98 151 -120 296 -119 134 0 196 22 280 101 222 205 173 552 -97 685 -60
29 -77 33 -167 36 -79 2 -113 -2 -154 -16z"/>
<path d="M3050 6265 c-6 -16 -42 -121 -80 -232 l-69 -203 159 0 158 0 -72 218
c-40 119 -75 224 -78 232 -4 11 -9 6 -18 -15z"/>
<path d="M4410 6324 l0 -147 69 5 c117 9 173 57 173 149 -1 94 -58 139 -174
139 l-68 0 0 -146z"/>
<path d="M4410 5724 l0 -157 114 5 c91 4 124 10 160 28 123 59 104 233 -29
269 -22 6 -86 11 -142 11 l-103 0 0 -156z"/>
<path d="M6420 6284 l0 -187 78 5 c96 5 157 32 192 85 21 30 25 49 25 104 0
60 -3 71 -31 106 -38 48 -104 72 -196 73 l-68 0 0 -186z"/>
<path d="M8950 6264 l0 -187 98 7 c53 4 113 11 132 16 135 36 149 263 20 328
-37 18 -60 22 -147 22 l-103 0 0 -186z"/>
<path d="M12140 6284 l0 -187 78 5 c96 5 157 32 192 85 21 30 25 49 25 104 0
60 -3 71 -31 106 -38 48 -104 72 -196 73 l-68 0 0 -186z"/>
</g>
</svg>
